<?xml version="1.0" encoding="UTF-8"?>
<svg id="_Слой_1" xmlns="http://www.w3.org/2000/svg" version="1.1" viewBox="0 0 1200 1200">
  <!-- Generator: Adobe Illustrator 29.0.1, SVG Export Plug-In . SVG Version: 2.1.0 Build 192)  -->
  <defs>
    <style>
      .st0 {
        fill: #fff;
      }
    </style>
  </defs>
  <g>
    <path class="st0" d="M160.2,512.2v-36.5c20.1,0,36.5-16.4,36.5-36.5h36.5v145.9h62v36.5h-160.5v-36.5h62v-82.8c-10.6,6.2-23.3,9.9-36.5,9.9Z"/>
    <path class="st0" d="M550.6,512.2l-18.2,18.2,18.2,18.2v73h-218.9v-36.5h182.4v-36.5h-182.4v-36.5h182.4v-36.5h-182.4v-36.5h218.9v73Z"/>
    <path class="st0" d="M806,512.2l-18.2,18.2,18.2,18.2v73h-218.9v-36.5h182.4v-36.5h-182.4v-36.5h182.4v-36.5h-182.4v-36.5h218.9v73Z"/>
    <path class="st0" d="M1061.3,512.2l-18.2,18.2,18.2,18.2v73h-218.9v-36.5h182.4v-36.5h-182.4v-36.5h182.4v-36.5h-182.4v-36.5h218.9v73Z"/>
  </g>
  <g>
    <path class="st0" d="M213,700.5h-65.3v39.2h65.3v13.1h-71.8l-6.5-6.5v-52.2l6.5-6.5h71.8v13.1Z"/>
    <path class="st0" d="M233.8,687.5h78.3v65.3h-13.1v-15.7h-52.2v15.7h-13.1v-65.3ZM299.1,724v-23.5h-52.2v23.5h52.2Z"/>
    <path class="st0" d="M333,687.5h78.3v39.2h-13.1v10h13.1v16.1h-13.1v-6.5c-7.2,0-13.1-5.9-13.1-13.1v-6.5h-39.2v26.1h-13.1v-65.3ZM398.3,713.6v-13.1h-52.2v13.1h52.2Z"/>
    <path class="st0" d="M565.4,700.5h-65.3v39.2h65.3v13.1h-71.8l-6.5-6.5v-52.2l6.5-6.5h71.8v13.1Z"/>
    <path class="st0" d="M664.6,700.5h-65.3v13.1h44.4v13.1h-44.4v13.1h65.3v13.1h-78.3v-65.3h78.3v13.1Z"/>
    <path class="st0" d="M763.8,752.7h-13.1v-20.1l-52.2-30.2v50.3h-13.1v-65.3h13.1l52.2,30.2v-30.2h13.1v65.3Z"/>
    <path class="st0" d="M863,700.5h-32.6v52.2h-13.1v-52.2h-32.6v-13.1h78.3v13.1Z"/>
    <path class="st0" d="M962.2,700.5h-65.3v13.1h44.4v13.1h-44.4v13.1h65.3v13.1h-78.3v-65.3h78.3v13.1Z"/>
    <path class="st0" d="M983,687.5h78.3v39.2h-13.1v10h13.1v16.1h-13.1v-6.5c-7.2,0-13.1-5.9-13.1-13.1v-6.5h-39.2v26.1h-13.1v-65.3ZM1048.3,713.6v-13.1h-52.2v13.1h52.2Z"/>
  </g>
</svg>